<mxfile host="app.diagrams.net" modified="2023-05-16T03:47:55.596Z" agent="Mozilla/5.0 (Windows NT 10.0; Win64; x64; rv:109.0) Gecko/20100101 Firefox/114.0" etag="3-f8mlcAaaJJjCMkR-A7" version="21.3.2" type="device">
  <diagram name="Page-1" id="ya0CKT0qAcse2HXHP5nK">
    <mxGraphModel dx="2074" dy="1106" grid="1" gridSize="10" guides="1" tooltips="1" connect="1" arrows="1" fold="1" page="1" pageScale="1" pageWidth="827" pageHeight="1169" math="0" shadow="0">
      <root>
        <mxCell id="0" />
        <mxCell id="1" parent="0" />
        <mxCell id="TuhBdciGU9eDg3nPLKS7-1" value="" style="rounded=0;whiteSpace=wrap;html=1;movable=1;resizable=1;rotatable=1;deletable=1;editable=1;locked=0;connectable=1;" vertex="1" parent="1">
          <mxGeometry x="296" y="170" width="420" height="830" as="geometry" />
        </mxCell>
        <mxCell id="TuhBdciGU9eDg3nPLKS7-7" style="rounded=0;orthogonalLoop=1;jettySize=auto;html=1;exitX=1;exitY=0.3333333333333333;exitDx=0;exitDy=0;exitPerimeter=0;entryX=0;entryY=0.5;entryDx=0;entryDy=0;endArrow=none;endFill=0;" edge="1" parent="1" source="TuhBdciGU9eDg3nPLKS7-2" target="TuhBdciGU9eDg3nPLKS7-3">
          <mxGeometry relative="1" as="geometry" />
        </mxCell>
        <mxCell id="TuhBdciGU9eDg3nPLKS7-9" style="rounded=0;orthogonalLoop=1;jettySize=auto;html=1;exitX=1;exitY=0.3333333333333333;exitDx=0;exitDy=0;exitPerimeter=0;entryX=0;entryY=0.5;entryDx=0;entryDy=0;endArrow=none;endFill=0;" edge="1" parent="1" source="TuhBdciGU9eDg3nPLKS7-2" target="TuhBdciGU9eDg3nPLKS7-8">
          <mxGeometry relative="1" as="geometry" />
        </mxCell>
        <mxCell id="TuhBdciGU9eDg3nPLKS7-40" style="edgeStyle=orthogonalEdgeStyle;rounded=0;orthogonalLoop=1;jettySize=auto;html=1;exitX=1;exitY=0.3333333333333333;exitDx=0;exitDy=0;exitPerimeter=0;entryX=0;entryY=0.5;entryDx=0;entryDy=0;endArrow=none;endFill=0;" edge="1" parent="1" source="TuhBdciGU9eDg3nPLKS7-2" target="TuhBdciGU9eDg3nPLKS7-38">
          <mxGeometry relative="1" as="geometry" />
        </mxCell>
        <mxCell id="TuhBdciGU9eDg3nPLKS7-2" value="Visiteur" style="shape=umlActor;verticalLabelPosition=bottom;verticalAlign=top;html=1;outlineConnect=0;" vertex="1" parent="1">
          <mxGeometry x="193" y="350" width="30" height="60" as="geometry" />
        </mxCell>
        <mxCell id="TuhBdciGU9eDg3nPLKS7-5" style="edgeStyle=orthogonalEdgeStyle;rounded=0;orthogonalLoop=1;jettySize=auto;html=1;exitX=1;exitY=0.5;exitDx=0;exitDy=0;entryX=0;entryY=0.5;entryDx=0;entryDy=0;dashed=1;" edge="1" parent="1" source="TuhBdciGU9eDg3nPLKS7-3" target="TuhBdciGU9eDg3nPLKS7-4">
          <mxGeometry relative="1" as="geometry" />
        </mxCell>
        <mxCell id="TuhBdciGU9eDg3nPLKS7-3" value="Se connecter" style="ellipse;whiteSpace=wrap;html=1;" vertex="1" parent="1">
          <mxGeometry x="356" y="210" width="120" height="80" as="geometry" />
        </mxCell>
        <mxCell id="TuhBdciGU9eDg3nPLKS7-4" value="S&#39;inscrire" style="ellipse;whiteSpace=wrap;html=1;" vertex="1" parent="1">
          <mxGeometry x="536" y="210" width="120" height="80" as="geometry" />
        </mxCell>
        <mxCell id="TuhBdciGU9eDg3nPLKS7-6" value="&amp;lt;&amp;lt;include&amp;gt;&amp;gt;" style="text;html=1;align=center;verticalAlign=middle;resizable=0;points=[];autosize=1;strokeColor=none;fillColor=none;" vertex="1" parent="1">
          <mxGeometry x="461" y="200" width="90" height="30" as="geometry" />
        </mxCell>
        <mxCell id="TuhBdciGU9eDg3nPLKS7-8" value="Consulter des articles" style="ellipse;whiteSpace=wrap;html=1;" vertex="1" parent="1">
          <mxGeometry x="356" y="450" width="120" height="80" as="geometry" />
        </mxCell>
        <mxCell id="TuhBdciGU9eDg3nPLKS7-16" style="rounded=0;orthogonalLoop=1;jettySize=auto;html=1;exitX=0.5;exitY=0;exitDx=0;exitDy=0;entryX=0.5;entryY=1;entryDx=0;entryDy=0;dashed=1;" edge="1" parent="1" source="TuhBdciGU9eDg3nPLKS7-10" target="TuhBdciGU9eDg3nPLKS7-8">
          <mxGeometry relative="1" as="geometry" />
        </mxCell>
        <mxCell id="TuhBdciGU9eDg3nPLKS7-10" value="Ajouter un commentaire Ã  un article" style="ellipse;whiteSpace=wrap;html=1;" vertex="1" parent="1">
          <mxGeometry x="356" y="572.5" width="120" height="80" as="geometry" />
        </mxCell>
        <mxCell id="TuhBdciGU9eDg3nPLKS7-13" style="rounded=0;orthogonalLoop=1;jettySize=auto;html=1;exitX=1;exitY=0.3333333333333333;exitDx=0;exitDy=0;exitPerimeter=0;entryX=0;entryY=0.5;entryDx=0;entryDy=0;endArrow=none;endFill=0;" edge="1" parent="1" source="TuhBdciGU9eDg3nPLKS7-11" target="TuhBdciGU9eDg3nPLKS7-10">
          <mxGeometry relative="1" as="geometry" />
        </mxCell>
        <mxCell id="TuhBdciGU9eDg3nPLKS7-41" style="edgeStyle=orthogonalEdgeStyle;rounded=0;orthogonalLoop=1;jettySize=auto;html=1;exitX=0.5;exitY=0;exitDx=0;exitDy=0;exitPerimeter=0;dashed=1;" edge="1" parent="1" source="TuhBdciGU9eDg3nPLKS7-11">
          <mxGeometry relative="1" as="geometry">
            <mxPoint x="207.72413793103442" y="440" as="targetPoint" />
          </mxGeometry>
        </mxCell>
        <mxCell id="TuhBdciGU9eDg3nPLKS7-11" value="Utilisateur" style="shape=umlActor;verticalLabelPosition=bottom;verticalAlign=top;html=1;outlineConnect=0;" vertex="1" parent="1">
          <mxGeometry x="193" y="592.5" width="30" height="60" as="geometry" />
        </mxCell>
        <mxCell id="TuhBdciGU9eDg3nPLKS7-18" value="Ajouter un article" style="ellipse;whiteSpace=wrap;html=1;" vertex="1" parent="1">
          <mxGeometry x="356" y="722.5" width="120" height="80" as="geometry" />
        </mxCell>
        <mxCell id="TuhBdciGU9eDg3nPLKS7-23" value="&amp;lt;&amp;lt;include&amp;gt;&amp;gt;" style="text;html=1;align=center;verticalAlign=middle;resizable=0;points=[];autosize=1;strokeColor=none;fillColor=none;" vertex="1" parent="1">
          <mxGeometry x="111" y="490" width="90" height="30" as="geometry" />
        </mxCell>
        <mxCell id="TuhBdciGU9eDg3nPLKS7-28" style="rounded=0;orthogonalLoop=1;jettySize=auto;html=1;exitX=0;exitY=0.5;exitDx=0;exitDy=0;entryX=1;entryY=0.5;entryDx=0;entryDy=0;dashed=1;" edge="1" parent="1" source="TuhBdciGU9eDg3nPLKS7-24" target="TuhBdciGU9eDg3nPLKS7-18">
          <mxGeometry relative="1" as="geometry" />
        </mxCell>
        <mxCell id="TuhBdciGU9eDg3nPLKS7-24" value="Modifier un article" style="ellipse;whiteSpace=wrap;html=1;" vertex="1" parent="1">
          <mxGeometry x="536" y="662.5" width="120" height="80" as="geometry" />
        </mxCell>
        <mxCell id="TuhBdciGU9eDg3nPLKS7-26" style="rounded=0;orthogonalLoop=1;jettySize=auto;html=1;exitX=0;exitY=0.5;exitDx=0;exitDy=0;entryX=1;entryY=0.5;entryDx=0;entryDy=0;dashed=1;" edge="1" parent="1" source="TuhBdciGU9eDg3nPLKS7-25" target="TuhBdciGU9eDg3nPLKS7-18">
          <mxGeometry relative="1" as="geometry" />
        </mxCell>
        <mxCell id="TuhBdciGU9eDg3nPLKS7-25" value="Supprimer un article" style="ellipse;whiteSpace=wrap;html=1;" vertex="1" parent="1">
          <mxGeometry x="536" y="792.5" width="120" height="80" as="geometry" />
        </mxCell>
        <mxCell id="TuhBdciGU9eDg3nPLKS7-30" value="&amp;lt;&amp;lt;extends&amp;gt;&amp;gt;" style="text;html=1;align=center;verticalAlign=middle;resizable=0;points=[];autosize=1;strokeColor=none;fillColor=none;" vertex="1" parent="1">
          <mxGeometry x="446" y="687.5" width="90" height="30" as="geometry" />
        </mxCell>
        <mxCell id="TuhBdciGU9eDg3nPLKS7-31" value="&amp;lt;&amp;lt;include&amp;gt;&amp;gt;" style="text;html=1;align=center;verticalAlign=middle;resizable=0;points=[];autosize=1;strokeColor=none;fillColor=none;" vertex="1" parent="1">
          <mxGeometry x="423" y="532.5" width="90" height="30" as="geometry" />
        </mxCell>
        <mxCell id="TuhBdciGU9eDg3nPLKS7-32" value="&amp;lt;&amp;lt;extends&amp;gt;&amp;gt;" style="text;html=1;align=center;verticalAlign=middle;resizable=0;points=[];autosize=1;strokeColor=none;fillColor=none;" vertex="1" parent="1">
          <mxGeometry x="446" y="817.5" width="90" height="30" as="geometry" />
        </mxCell>
        <mxCell id="TuhBdciGU9eDg3nPLKS7-34" style="rounded=0;orthogonalLoop=1;jettySize=auto;html=1;exitX=1;exitY=0.3333333333333333;exitDx=0;exitDy=0;exitPerimeter=0;entryX=0;entryY=0.5;entryDx=0;entryDy=0;endArrow=none;endFill=0;" edge="1" parent="1" source="TuhBdciGU9eDg3nPLKS7-33" target="TuhBdciGU9eDg3nPLKS7-18">
          <mxGeometry relative="1" as="geometry" />
        </mxCell>
        <mxCell id="TuhBdciGU9eDg3nPLKS7-35" style="edgeStyle=orthogonalEdgeStyle;rounded=0;orthogonalLoop=1;jettySize=auto;html=1;exitX=0.5;exitY=0;exitDx=0;exitDy=0;exitPerimeter=0;dashed=1;" edge="1" parent="1" source="TuhBdciGU9eDg3nPLKS7-33">
          <mxGeometry relative="1" as="geometry">
            <mxPoint x="207.8275862068965" y="682.5" as="targetPoint" />
          </mxGeometry>
        </mxCell>
        <mxCell id="TuhBdciGU9eDg3nPLKS7-39" style="rounded=0;orthogonalLoop=1;jettySize=auto;html=1;exitX=1;exitY=0.3333333333333333;exitDx=0;exitDy=0;exitPerimeter=0;entryX=0;entryY=0.5;entryDx=0;entryDy=0;endArrow=none;endFill=0;" edge="1" parent="1" source="TuhBdciGU9eDg3nPLKS7-33" target="TuhBdciGU9eDg3nPLKS7-37">
          <mxGeometry relative="1" as="geometry" />
        </mxCell>
        <mxCell id="TuhBdciGU9eDg3nPLKS7-33" value="Administrateur" style="shape=umlActor;verticalLabelPosition=bottom;verticalAlign=top;html=1;outlineConnect=0;" vertex="1" parent="1">
          <mxGeometry x="193" y="817.5" width="30" height="60" as="geometry" />
        </mxCell>
        <mxCell id="TuhBdciGU9eDg3nPLKS7-36" value="&amp;lt;&amp;lt;include&amp;gt;&amp;gt;" style="text;html=1;align=center;verticalAlign=middle;resizable=0;points=[];autosize=1;strokeColor=none;fillColor=none;" vertex="1" parent="1">
          <mxGeometry x="111" y="730" width="90" height="30" as="geometry" />
        </mxCell>
        <mxCell id="TuhBdciGU9eDg3nPLKS7-37" value="Valider un commentaire" style="ellipse;whiteSpace=wrap;html=1;" vertex="1" parent="1">
          <mxGeometry x="356" y="892.5" width="120" height="80" as="geometry" />
        </mxCell>
        <mxCell id="TuhBdciGU9eDg3nPLKS7-38" value="contacter le blogueur" style="ellipse;whiteSpace=wrap;html=1;" vertex="1" parent="1">
          <mxGeometry x="356" y="330" width="120" height="80" as="geometry" />
        </mxCell>
        <mxCell id="TuhBdciGU9eDg3nPLKS7-42" value="Blog" style="text;html=1;align=center;verticalAlign=middle;resizable=0;points=[];autosize=1;strokeColor=none;fillColor=none;" vertex="1" parent="1">
          <mxGeometry x="666" y="170" width="50" height="30" as="geometry" />
        </mxCell>
      </root>
    </mxGraphModel>
  </diagram>
</mxfile>
